<?xml version="1.0" encoding="UTF-8" standalone="no"?>
<svg width="22px" height="22px" viewBox="0 0 22 22" version="1.1" xmlns="http://www.w3.org/2000/svg" xmlns:xlink="http://www.w3.org/1999/xlink" xmlns:sketch="http://www.bohemiancoding.com/sketch/ns">
    <!-- Generator: Sketch 3.3.1 (12005) - http://www.bohemiancoding.com/sketch -->
    <title>Imported Layers Copy 2</title>
    <desc>Created with Sketch.</desc>
    <defs></defs>
    <g id="mobile" stroke="none" stroke-width="1" fill="none" fill-rule="evenodd" sketch:type="MSPage">
        <g id="aticle" sketch:type="MSArtboardGroup" transform="translate(-268.000000, -226.000000)" fill="#6B6B6B">
            <g id="share" sketch:type="MSLayerGroup" transform="translate(223.000000, 226.000000)">
                <g id="share-it-+-Imported-Layers-Copy-2" sketch:type="MSShapeGroup">
                    <path d="M62.9994658,14.6666667 C62.0587991,14.6666667 61.2094658,15.0573333 60.6034658,15.684 L51.6247991,11.194 C51.6521325,11.0233333 51.6661325,10.8466667 51.6661325,10.6666667 C51.6661325,10.4873333 51.6521325,10.3106667 51.6247991,10.1393333 L60.6034658,5.65 C61.2094658,6.27666667 62.0587991,6.66666667 62.9994658,6.66666667 C64.8401325,6.66666667 66.3327991,5.17466667 66.3327991,3.33333333 C66.3327991,1.49266667 64.8401325,0 62.9994658,0 C61.1587991,0 59.6661325,1.49266667 59.6661325,3.33333333 C59.6661325,3.51333333 59.6794658,3.69 59.7081325,3.86066667 L50.7287991,8.35066667 C50.1227991,7.724 49.2734658,7.33333333 48.3327991,7.33333333 C46.4921325,7.33333333 44.9994658,8.826 44.9994658,10.6666667 C44.9994658,12.508 46.4921325,14 48.3327991,14 C49.2734658,14 50.1227991,13.61 50.7287991,12.9833333 L59.7081325,17.472 C59.6794658,17.644 59.6661325,17.8206667 59.6661325,18 C59.6661325,19.8413333 61.1587991,21.3333333 62.9994658,21.3333333 C64.8401325,21.3333333 66.3327991,19.8413333 66.3327991,18 C66.3327991,16.1593333 64.8401325,14.6666667 62.9994658,14.6666667" id="Imported-Layers-Copy-2"></path>
                </g>
            </g>
        </g>
    </g>
</svg>