<?xml version="1.0" standalone="no"?>
<!DOCTYPE svg PUBLIC "-//W3C//DTD SVG 1.1//EN" "http://www.w3.org/Graphics/SVG/1.1/DTD/svg11.dtd" >
<svg xmlns="http://www.w3.org/2000/svg" xmlns:xlink="http://www.w3.org/1999/xlink" version="1.1">
<metadata></metadata>
<defs>
<font id="phoenix_americanregular" horiz-adv-x="559" >
<font-face units-per-em="2048" ascent="1638" descent="-410" />
<missing-glyph horiz-adv-x="354" />
<glyph horiz-adv-x="0" />
<glyph unicode="&#xd;" horiz-adv-x="40" />
<glyph unicode=" "  horiz-adv-x="354" />
<glyph unicode="&#x09;" horiz-adv-x="354" />
<glyph unicode="&#xa0;" horiz-adv-x="354" />
<glyph unicode="!" horiz-adv-x="301" d="M88 1395l129 -2l-18 -1016h-80q-2 106 -31 1018zM96 6v160h131v-160q-117 -2 -131 0z" />
<glyph unicode="&#x22;" horiz-adv-x="452" d="M53 1389l17 -408h69l27 408h-113zM258 1389l16 -408h70l27 408h-113z" />
<glyph unicode="#" horiz-adv-x="665" d="M-4 367l14 96h96l74 518h-96l14 96h97l45 305h100l-45 -305h125l45 305h100l-45 -305h105l-15 -96h-104l-74 -518h105l-15 -96h-104l-51 -367h-101l51 367h-124l-52 -367h-100l51 367h-96zM207 463h125l74 518h-125z" />
<glyph unicode="$" horiz-adv-x="593" d="M53 319v26v32q47 0 94 -4q-4 -39 -4 -74q0 -203 93 -209v582q0 2 -48 69q-57 80 -88 148q-47 102 -47 192q0 274 174 316q-2 14 2 39l84 -2q-4 -18 -6 -37q0 -6 10 -8q68 -4 123 -109q45 -88 45 -141v-117h-90q-2 55 -2 111q-14 111 -80 149l-2 -512q191 -252 191 -438 q2 -293 -183 -344q-2 -12 -2 -121h-79q0 43 -2 123q-31 8 -60 16q-51 25 -82 84q-41 82 -41 229zM158 1100q-1 -158 71 -226v414q-49 -23 -63 -84q-8 -27 -8 -104zM324 96q71 50 71 236q0 104 -71 237v-473z" />
<glyph unicode="%" horiz-adv-x="1032" d="M47 762v440q0 188 158 191q154 2 162 -217v-418q0 -201 -156 -203q-156 -4 -164 207zM135 2l647 1387h78l-657 -1387h-68zM139 1235q0 -12 2 -38t2 -38v-354v-23q-2 -18 -2 -32q0 -92 66 -95q49 -2 59 58q2 8 2 86v360q6 141 -61 141q-68 0 -68 -65zM618 610 q-2 203 160 209q96 2 133 -65q25 -47 29 -152v-418q0 -203 -156 -202q-98 0 -135 59q-25 41 -28 147zM715 176q0 -92 65 -94q49 -2 60 57q2 8 2 86v361q6 135 -64 135q-47 0 -57 -45q-4 -14 -4 -90v-355v-22q-2 -18 -2 -33z" />
<glyph unicode="&#x26;" horiz-adv-x="696" d="M43 322q0 119 76 275.5t76 145.5q0 -2 -37 116t-37 241q0 117 43 196q53 100 158 101q90 0 143 -74q47 -68 47 -160q0 -100 -61 -231q-55 -113 -134 -203q39 -100 78 -199q51 -131 86 -184q12 27 13 115q0 82 -9 186l103 -2q0 -31 4 -108q4 -68 4 -109q0 -55 -4 -94 q-2 -18 -19.5 -72.5t-17.5 -62.5q0 -25 86 -195q-33 2 -117 -2q-16 45 -37 76q-84 -92 -184 -92q-123 0 -197 110q-63 94 -63 226zM160 338q0 -92 30 -158q39 -84 119 -84q94 0 125 88l-192 428q-35 -45 -58.5 -129t-23.5 -145zM223 1135q0 -49 15 -150q20 -123 41 -125 q122 135 122 285t-86 149q-49 0 -75 -59q-16 -43 -17 -100z" />
<glyph unicode="'" horiz-adv-x="245" d="M53 1389l17 -408h69l27 408h-113z" />
<glyph unicode="(" horiz-adv-x="393" d="M10 694q0 522 260 885l76 -53q-244 -340 -244 -832q0 -493 244 -839l-76 -54q-260 371 -260 893z" />
<glyph unicode=")" horiz-adv-x="393" d="M-2 -145q244 346 244 839q0 492 -244 832l74 53q262 -362 262 -885q0 -522 -260 -893z" />
<glyph unicode="*" horiz-adv-x="747" d="M43 950l219 125l-219 127l37 66l219 -127v254h76v-254l219 127l37 -66l-217 -127l217 -125l-37 -65l-219 125v-252h-76v252l-219 -125z" />
<glyph unicode="+" horiz-adv-x="1073" d="M35 643v86h403v404h86v-404h404v-86h-404v-403h-86v403h-403z" />
<glyph unicode="," horiz-adv-x="276" d="M57 8v152h136v-154l-66 -250h-51l35 250z" />
<glyph unicode="-" horiz-adv-x="393" d="M39 606v101h260v-103q-86 0 -260 2z" />
<glyph unicode="." horiz-adv-x="270" d="M59 8v152h129v-152h-129z" />
<glyph unicode="/" horiz-adv-x="739" d="M8 -45l494 1468h69l-493 -1468h-70z" />
<glyph unicode="0" horiz-adv-x="565" d="M45 285v821q0 297 207 307q115 4 178 -88q53 -82 53 -215v-827q4 -293 -215 -297q-115 -2 -176 96q-55 86 -47 203zM156 291q-8 -201 114 -199q74 0 90 92q2 49 5 99v823q2 55 -11 104q-27 96 -96 97q-78 0 -96 -97q-2 -51 -4 -104z" />
<glyph unicode="1" d="M113 1212v76l172 101h77v-1391h-124v1216z" />
<glyph unicode="2" horiz-adv-x="587" d="M53 2v117q2 154 88 334q78 150 158 301q86 178 86 327q0 197 -106 201q-86 2 -99 -117q-2 -86 -2 -172h-119v160q0 104 47 168q59 80 179 80q109 0 170 -109q49 -90 47 -211q-2 -168 -86 -354q-78 -154 -156 -305q-88 -176 -94 -313h334v-107h-447z" />
<glyph unicode="3" d="M51 1122q0 279 203 279q221 0 221 -334q0 -270 -127 -322q139 -70 139 -342q0 -94 -2 -114q-12 -297 -219 -297q-193 0 -211 266q-2 37 -2 109h107q-6 -78 8 -146q23 -125 96 -125q72 0 92 117q10 47 11 172q0 322 -181 311v95q170 12 170 258q0 248 -94 249 q-63 0 -86 -59q-14 -35 -12 -109v-63h-111q-2 25 -2 55z" />
<glyph unicode="4" horiz-adv-x="561" d="M39 340v98q209 776 262 948q57 4 127 0v-950h100v-100h-98l2 -332h-117v334zM152 434h163l2 643q-52 -201 -165 -643z" />
<glyph unicode="5" horiz-adv-x="561" d="M45 193v182h119q0 -12 -2 -43t-2 -47q0 -176 100 -176t100 174q0 20 -2 53v45v96q2 66 2 96q0 207 -94 207q-92 0 -100 -63h-117v672h389v-109h-278v-434q74 47 135 47q135 0 172 -166q14 -66 14 -272q0 -283 -22 -340q-51 -125 -205 -125q-86 0 -147.5 58t-61.5 145z " />
<glyph unicode="6" d="M49 236q0 805 2 888q6 276 223 277q90 0 144 -66q47 -59 47 -141v-129q-57 -8 -109 0q0 -10 0 65q2 78 -6 107q-14 57 -69 61q-82 4 -103 -92q-8 -39 -4 -98q0 -334 2 -334q-2 0 32 25.5t75 25.5q86 2 139 -65.5t54 -158.5t1 -380q0 -100 -53 -162q-57 -68 -166 -67 q-100 0 -158 71q-51 66 -51 173zM168 242q0 -51 18 -90q25 -49 70 -50q96 0 98 134l2 337q4 16 4 37q0 109 -86 113q-82 4 -104 -92z" />
<glyph unicode="7" horiz-adv-x="561" d="M49 1292v99h440v-84l-210 -1305h-119l213 1292z" />
<glyph unicode="8" horiz-adv-x="561" d="M45 358q0 307 109 379q-102 70 -103 314q0 154 35 233q49 117 182 117q119 0 174 -125q41 -92 41 -229q0 -219 -102 -310q113 -63 113 -379q0 -170 -33 -247q-50 -123 -195 -123q-221 0 -221 370zM166 422q0 -160 6 -197q18 -137 94 -137q106 0 107 244v90 q-1 248 -99 248q-109 0 -108 -248zM166 1024q0 -219 106 -219q53 0 78 98q18 66 19 148q0 74 -23 143q-31 96 -86 96q-94 0 -94 -266z" />
<glyph unicode="9" d="M49 1174q0 100 56.5 163.5t162.5 63.5q102 0 155.5 -67.5t53.5 -174.5q0 -805 -2 -889q-6 -279 -221 -278q-92 0 -143 67q-47 59 -48 142v129q55 8 109 0q0 10 -2 -66q0 -78 6 -106q14 -57 72 -62q82 -6 102 90q8 41 4 99q0 336 -4 336q4 0 -30.5 -27t-73.5 -27 q-88 0 -140.5 67.5t-54.5 162.5q-2 88 -2 377zM168 784q0 -109 84 -112q84 -4 104 90l2 391q2 51 -18 90q-23 49 -70 49q-96 0 -96 -133l-4 -338q-2 -16 -2 -37z" />
<glyph unicode=":" horiz-adv-x="329" d="M59 8v152h129v-152h-129zM59 623v151h129v-151h-129z" />
<glyph unicode=";" horiz-adv-x="327" d="M57 8v152h136v-154l-66 -250h-51l35 250zM59 623v151h129v-151h-129z" />
<glyph unicode="&#x3c;" horiz-adv-x="679" d="M4 698l569 482l56 -64l-502 -418l487 -440l-47 -68z" />
<glyph unicode="=" horiz-adv-x="1122" d="M90 516v96h903v-96h-903zM90 741v97h903v-97h-903z" />
<glyph unicode="&#x3e;" horiz-adv-x="763" d="M6 258l502 418l-488 438l48 68l563 -508l-568 -481z" />
<glyph unicode="?" horiz-adv-x="444" d="M39 1116q0 106 43 182q57 100 172 101q109 0 160 -96q32 -66 32 -160q0 -92 -40 -205q-35 -96 -70 -193q-51 -178 -47 -368h-92v184q0 6 3 24.5t5 24.5q6 88 69 277q57 172 58 262q0 150 -92 149q-59 0 -82 -92q-8 -61 -17 -121h-96q-6 12 -6 31zM180 0v160q59 8 119 0 v-160h-119z" />
<glyph unicode="@" horiz-adv-x="1521" d="M6 686q0 319 193 545q201 236 516 235q264 0 455.5 -177t191.5 -439q0 -203 -129 -387q-143 -203 -338 -203q-156 0 -139 174q-111 -162 -221 -162q-119 0 -191 97q-66 86 -65 209q0 174 116 327q127 166 295 166q123 0 160 -133l33 115h180l-90 -336q-70 -260 -70 -318 q0 -49 55 -49q119 0 216 189q82 164 81 297q0 219 -155.5 373.5t-372.5 154.5q-274 0 -444 -199q-162 -188 -162 -467q0 -281 166 -467q172 -197 448 -196q312 0 488 309h125q-80 -184 -254 -299t-375 -115q-311 0 -514 226q-199 217 -199 530zM463 514q0 -160 98 -160 q104 0 184 199q66 164 66 289q0 145 -94 145q-104 0 -185 -190q-70 -160 -69 -283z" />
<glyph unicode="A" horiz-adv-x="555" d="M0 637v100h49v443q6 215 213 215q94 0 149.5 -63.5t57.5 -155.5q2 -145 2 -362q0 -325 -4 -812l-115 2v633h-194v-635h-111v637l-39 -2h-8zM160 737h200v432q0 131 -100 131q-43 0 -70.5 -36.5t-27.5 -79.5z" />
<glyph unicode="B" horiz-adv-x="530" d="M47 1386h186q82 0 147.5 -68.5t68.5 -146.5v-237q0 -172 -117 -209q119 -41 133 -197v-176v70v-191q0 -230 -202 -230q-15 0 -32 1q-10 1 -55.5 1t-126.5 -1zM154 92h61q143 0 143 162v217q0 205 -149 205h-53zM156 766l51 -2q137 0 137 174q-2 -4 -2 168q0 186 -139 186 h-47v-526z" />
<glyph unicode="C" horiz-adv-x="524" d="M41 332q0 -20 0 782q0 274 205 279q90 0 144 -65.5t54 -190.5v-217h-102v210q0 166 -98 166q-88 0 -90 -170v-847q-2 -18 -2 -39q0 -162 102 -162q27 0 49 24q39 39 39 135v9q0 -8 0 121v120h109v-84q-2 -66 -2 -84q0 -174 -37 -245q-44 -90 -165 -90h-5q-129 4 -172 96 q-29 64 -29 214v38z" />
<glyph unicode="D" horiz-adv-x="555" d="M51 1389h2q12 -1 53.5 -1t112.5 1q143 0 201 -95q47 -78 47 -245v-723q0 -174 -45 -240q-53 -82 -207 -82q-143 0 -162 -2zM164 104l55 -2h5q134 0 134 224v737q0 135 -32 182q-27 39 -103 47h-59v-1188z" />
<glyph unicode="E" horiz-adv-x="466" d="M20 668l3 104l47 -2v414q0 102 71 159q66 51 172 52q72 0 101 -11v-100q-59 16 -95 16q-137 0 -137 -202l2 -324h197v-106h-193v-455q0 -125 127 -125q68 0 101 16v-100q-41 -12 -105 -12q-236 0 -235 217v459h-56z" />
<glyph unicode="F" horiz-adv-x="462" d="M23 668l2 104l47 -2v414q0 100 67.5 155.5t175.5 55.5q70 0 101 -11v-100q-27 6 -82 14h-11q-141 0 -141 -200l2 -324h199v-106h-195l2 -664l-116 -4v668h-51z" />
<glyph unicode="G" horiz-adv-x="575" d="M63 1124q0 -833 3 -833v2v-22q0 -149 50 -213q54 -70 173 -74h6q108 0 155 66q46 66 46 216v13q-1 75 -1 195.5t1 287.5l-226 2l2 -100h117q2 -138 2 -237.5t-2 -160.5v-11q0 -124 -45 -161q-18 -14 -57 -14q-110 2 -110 162q0 13 1 28l-2 867q2 157 104 157h1 q106 0 106 -153l-2 -221h104v217v9q0 239 -217 249h-10q-101 0 -153 -80q-45 -72 -46 -191z" />
<glyph unicode="H" horiz-adv-x="571" d="M51 4v1385h119v-580h195v580h118v-1385h-118v705h-195v-705h-119z" />
<glyph unicode="I" horiz-adv-x="258" d="M53 0v1389h119v-1389h-119z" />
<glyph unicode="J" d="M51 297v324h109v-254q-6 -66 -6 -93q0 -190 101 -190h5q98 4 98 180v53q-2 33 -2 45v1027h115l2 -1070q2 -37 2 -69q0 -262 -200 -262h-9q-143 4 -186 84q-29 53 -29 225z" />
<glyph unicode="K" horiz-adv-x="555" d="M4 756h47l2 635h113v-631l70 -2q23 78 170 633h112l-178 -641q55 -6 93 -54.5t38 -105.5v-588h-109q-2 210 -2 344t2 191q-4 94 -69 112q-63 4 -125 6q-5 -3 -5 -217q0 -160 3 -438l-113 2l2 647h-49q-5 41 -5 70q0 22 3 37z" />
<glyph unicode="L" horiz-adv-x="456" d="M47 2v1382l111 -2v-1284l243 -2v-94h-354z" />
<glyph unicode="M" horiz-adv-x="849" d="M47 1128q0 269 185 269h16q137 -10 155 -107q23 108 153 107h19q190 -10 191 -221v-1174h-113l2 1174q0 118 -90 118h-2h-2q-94 0 -94 -190v-1102h-119v1106v40q0 54 -4 73q-16 68 -78 68q-6 0 -12 -1q-86 -4 -92 -108v-1178h-113z" />
<glyph unicode="N" d="M43 0v1391h109q2 -44 -2 -60q31 47 71 62q25 10 82 10q90 0 139 -84q43 -72 43 -178v-1143h-114v1165q0 135 -99 135q-45 0 -79.5 -40.5t-34.5 -108.5q0 -14 -2 -39v-41v-1069h-113z" />
<glyph unicode="O" d="M45 1104v5q0 292 215 292q217 0 217 -291q-2 -412 -2 -618.5t2 -206.5v-12q0 -149 -50 -215q-52 -68 -167 -68q-213 0 -213 270v25zM154 279v-6q0 -182 116 -183q101 0 101 172v17l-2 835v12q0 176 -115 177q-29 2 -55 -23q-45 -39 -45 -133v-8q2 -70 2 -443 q1 -138 1 -230q0 -185 -3 -187z" />
<glyph unicode="P" horiz-adv-x="536" d="M51 4v1385l150 -3q119 -2 157 -26q84 -51 93 -238q0 -24 -2 -276q-4 -254 -169 -254h-10q-61 2 -114 4v-592h-105zM154 1286l2 -581q33 -12 63 -13q115 0 117 148l2 301q2 151 -131 151h-2q-27 0 -51 -6z" />
<glyph unicode="Q" d="M45 272v836v12q0 148 50 212q52 67 167 67t165 -63.5t50 -207.5q-2 -428 -2 -642t2 -214v-16q0 -195 -94 -244q33 -59 43 -66t51 -28l2 -104q-133 14 -211 176h-2q-221 0 -221 263v19zM156 1143q8 -464 8 -682q0 -187 -6 -193q-1 -18 -1 -33q0 -133 105 -135h2 q104 0 105 172v869q2 14 2 30q0 129 -117 129q-98 0 -98 -151v-6z" />
<glyph unicode="R" horiz-adv-x="548" d="M0 662v106h55v621h191q90 -6 127 -37q88 -74 88 -291q0 -158 -21 -223q-27 -88 -106 -113q127 -39 127 -217v-506h-111v487q0 172 -143 173q-23 0 -41 -5l2 -657h-115l-2 662h-51zM168 768q12 -1 23 -1q155 0 155 183v189q0 155 -139 155h-2q-20 0 -37 -4v-522z" />
<glyph unicode="S" horiz-adv-x="555" d="M39 301v51t0 43h117q-4 -37 -4 -78q0 -219 112 -225h6q107 0 107 225q0 139 -86 271q-80 109 -160 217q-88 135 -92 280v20q0 279 215 286h4q136 0 178 -136q20 -68 21 -235h-109q2 37 2 76q0 192 -89 192h-1q-104 0 -104 -173v-23q4 -113 88 -232q78 -106 155 -213 q84 -141 86 -311v-17q0 -325 -225 -333h-9q-100 0 -157 88q-55 86 -55 227z" />
<glyph unicode="T" horiz-adv-x="464" d="M6 1282v107l402 -3v-104h-142v-1280l-119 2l3 1278h-144z" />
<glyph unicode="U" horiz-adv-x="589" d="M49 301q0 -152 41 -223q53 -88 186 -88q221 0 222 317q0 4 2 543q0 538 0 536h-117l-2 -1003q0 -152 -12 -199q-23 -86 -97 -88q-111 0 -110 277v1013h-113v-1085z" />
<glyph unicode="V" horiz-adv-x="542" d="M14 1391h113l123 -1016l125 1014l104 2l-180 -1391l-115 2z" />
<glyph unicode="W" horiz-adv-x="849" d="M47 1389h117l2 -1170q0 -129 86 -129h2q100 0 100 191v1108h117v-1113q4 -98 6 -108q18 -72 90 -72q86 0 86 109v1184h113l2 -1174q0 -228 -177 -228q-10 0 -20 1q-135 10 -155 106q-21 -107 -156 -107q-10 0 -20 1q-190 10 -191 221z" />
<glyph unicode="X" horiz-adv-x="542" d="M-2 4l164 725l-162 657h104l119 -503l119 503h109l-162 -657l180 -727h-109l-135 549l-116 -549z" />
<glyph unicode="Y" horiz-adv-x="579" d="M47 776v613h115v-531q-2 -31 -2 -65q0 -219 106 -220q82 0 105 86q14 47 14 197v533h109v-1129q0 -145 -80 -217q-27 -25 -95 -41q-59 -14 -98 -14q-102 4 -168 28q-2 10 25 99q82 -31 147 -31q170 0 170 176l-2 150q0 90 2 102q-47 -35 -80 -39q-10 -2 -59 0 q-113 8 -161 78t-48 225z" />
<glyph unicode="Z" horiz-adv-x="522" d="M31 14v82l297 1198q5 1 -64.5 1t-214.5 -1v95h393v-95l-290 -1192l292 -2l5 -96h-412z" />
<glyph unicode="[" horiz-adv-x="352" d="M47 -162v1669h164v-82h-64l3 -1501l69 -4v-84z" />
<glyph unicode="\" horiz-adv-x="739" d="M8 1423l494 -1468h69l-493 1468h-70z" />
<glyph unicode="]" horiz-adv-x="352" d="M47 -80v-84l172 2v1669h-164v-82h64l2 -1505h-74z" />
<glyph unicode="^" horiz-adv-x="530" d="M29 1470l200 146l211 -146l-6 -12l-198 68l-201 -68z" />
<glyph unicode="_" horiz-adv-x="741" d="M-2 -117h743v-76h-743v76z" />
<glyph unicode="`" horiz-adv-x="483" d="M94 1530q0 6 39 92l273 -156l-13 -26q-299 84 -299 90z" />
<glyph unicode="a" horiz-adv-x="481" d="M37 252q0 276 266 389q-4 74 -6 147q-14 109 -64 109q-53 0 -65 -78q-2 -12 -2 -119v-22q-28 -3 -52 -3t-46 3q4 20 2 51q-4 43 -4 51q0 213 172 213q115 0 151 -110q20 -61 21 -205v-561q0 8 24 -113h-106q-8 14 -27 41q-8 -2 -45 -31q-25 -20 -61 -20q-86 0 -127 92 q-31 68 -31 166zM150 244q0 -154 73 -154q29 0 53.5 20.5t24.5 47.5v366q-90 -57 -120.5 -114.5t-30.5 -165.5z" />
<glyph unicode="b" horiz-adv-x="499" d="M49 4v1385h107q0 -172 2 -471q33 45 52 59t66 14q150 0 150 -239v-598q0 -150 -147 -150q-43 0 -70 14.5t-55 30.5q-6 -16 -4 -45q-27 -4 -54 -4t-47 4zM156 209q0 -37 25.5 -63.5t62.5 -26.5q75 0 75 74q0 18 -4 38v527q1 135 -71 135q-86 0 -86 -129z" />
<glyph unicode="c" horiz-adv-x="481" d="M49 301v522q0 66 57.5 123.5t122.5 57.5q80 0 133 -64q47 -61 48 -141v-115q-28 -4 -54.5 -4t-52.5 4v33q2 25 2 33q0 157 -77 157h-1q-33 0 -51 -39q-14 -29 -14 -65l4 -639q0 -23 21.5 -50.5t43.5 -27.5q61 0 76 109q2 23 2 139q2 1 27.5 1t73.5 -1q4 -47 4 -91 q0 -29 -2 -57q-12 -198 -176 -198q-186 0 -187 313z" />
<glyph unicode="d" horiz-adv-x="499" d="M49 154v598q0 239 149 239h1q47 0 69 -16q16 -12 49 -57v471h109v-1385q-24 -3 -49 -3t-51 3v19q2 12 -4 26q-29 -16 -55.5 -30.5t-69.5 -14.5q-147 0 -148 150zM156 195q0 -76 75 -76q37 0 62.5 26.5t25.5 63.5v573q0 111 -88 111q-72 0 -71 -135v-527q0 -6 -2 -18 t-2 -18z" />
<glyph unicode="e" horiz-adv-x="483" d="M49 215v565q0 215 176 215q84 0 134.5 -57t54.5 -154q0 7 0 -292h-256v-277q0 -119 73 -119q80 0 80 125v129h101v-135q0 -86 -45 -147q-51 -70 -131 -70q-84 0 -135.5 65.5t-51.5 151.5zM154 586l149 -2q2 137 2 217q0 106 -80 106q-72 0 -71 -112v-209z" />
<glyph unicode="f" horiz-adv-x="311" d="M0 907v78h68v164q0 252 153 252q59 0 84 -23v-11q0 -39 -12 -73q-4 6 -12 15l-17 4q-10 2 -20 2q-55 0 -62 -113v-217h111v-80q-104 0 -103 0v-907h-118v909q-22 -2 -40 -2t-32 2z" />
<glyph unicode="g" horiz-adv-x="505" d="M53 262q0 295 2 557q0 61 41 117.5t103 56.5q45 0 116 -59q2 0 13 47h108v-1049q0 -113 -59 -190q-64 -84 -162 -84q-41 0 -68 10q-33 10 -45 10l35 93q14 -8 37 -19h15q85 0 114 64q18 41 19 151v88q-33 -37 -48 -43q-27 -16 -81 -16q-139 0 -140 266zM160 238 q0 -141 63 -142q31 0 65 38t34 69v602q0 23 -25 52.5t-64 33.5h-7q-61 0 -62 -143v-406q0 -8 -2 -45t-2 -59z" />
<glyph unicode="h" horiz-adv-x="493" d="M53 2v1389l109 -2v-453q78 61 147 61q45 0 79 -31.5t34 -78.5l2 -885h-107v784q0 113 -55 113q-20 0 -59 -25.5t-39 -44.5v-827h-111z" />
<glyph unicode="i" horiz-adv-x="227" d="M51 0v981h107v-981h-107zM51 1382h103v-118l-101 2q-4 50 -4 82q0 21 2 34z" />
<glyph unicode="j" horiz-adv-x="245" d="M-16 -229q43 4 47 12q16 29 28 41l2 1157h115v-1174q0 -53 -44 -94t-97 -41q-8 0 -25.5 2t-25.5 2v95zM61 1278v121h109v-121q-52 -1 -79 -1t-30 1z" />
<glyph unicode="k" horiz-adv-x="487" d="M51 0v1389h103v-807h59l102 401l109 -2l-117 -414q41 -12 58 -26q33 -31 47 -109q2 -20 6 -55v-340v-37h-111l2 377q-1 41 -31 79q-25 31 -58 31q-8 0 -17 -2q-14 6 -47 0l-2 -485h-103z" />
<glyph unicode="l" horiz-adv-x="239" d="M55 2v1389h109v-1389h-109z" />
<glyph unicode="m" horiz-adv-x="772" d="M51 -2l6 981l109 -2l-2 -64q25 25 51 50q36 28 88 28h4q72 0 121 -73q56 73 148 73h2q117 0 116 -188v-807h-112l2 790q0 51 -2 60q-10 29 -50 28q-47 0 -100 -67v-807h-113v834q0 20 -18 33.5t-33 13.5q-27 0 -59.5 -31t-38.5 -59l-2 -793h-12q2 2 8 2l-2 -2 q-18 1 -46 1t-65 -1z" />
<glyph unicode="n" horiz-adv-x="493" d="M47 0v979h105q2 -43 2 -66q-2 0 48 39t99 39q57 -2 94 -59q29 -45 29 -92v-840h-115v813q0 61 -39 61h-6q-55 -4 -106 -67l-2 -807h-109z" />
<glyph unicode="o" horiz-adv-x="487" d="M47 207v547q0 235 184 235h2q96 0 148 -76q39 -61 39 -149l-2 -565q-2 -215 -185 -215q-96 0 -147 79q-39 63 -39 137v7zM154 186q6 -45 10 -55q18 -53 74 -53h3q69 0 68 108l-2 623q0 84 -78 84q-76 0 -75 -88v-619z" />
<glyph unicode="p" horiz-adv-x="499" d="M51 975h111v-60q20 23 41.5 45.5t72.5 24.5h8q72 0 111 -67q33 -59 33 -144v-514q1 -258 -149 -266h-10q-46 0 -75 16q-32 19 -30 27v-344q-25 0 -111 -2zM162 164q61 -61 100 -62q59 0 60 123v580q0 23 -17.5 51.5t-46.5 26.5q-49 -4 -96 -74v-645z" />
<glyph unicode="q" horiz-adv-x="499" d="M51 260q0 -258 150 -266h9q47 0 79 18q29 16 26 25v-344q25 0 111 -2l2 1284h-111v-60q-20 23 -38 43q-25 25 -76 27h-8q-72 0 -111 -67q-33 -59 -33 -144v-514zM158 225v580q0 23 17.5 51.5t45.5 26.5q49 -4 96 -74v-645q-61 -61 -100 -62q-59 0 -59 123z" />
<glyph unicode="r" horiz-adv-x="344" d="M47 0v969h103q4 -6 0 -45q25 23 75 51q23 6 82 10v-119q-27 13 -76 13q-78 0 -77 -119v-760h-107z" />
<glyph unicode="s" horiz-adv-x="458" d="M51 193q-2 20 -2 44.5t2 51.5h94v-125q0 -82 84 -82q51 0 66 70q4 31 4 129q0 53 -33 102l-78 98q-84 109 -100 142q-37 70 -37 168q0 84 39 135q45 61 131 61q68 0 111 -51q33 -35 47 -92q12 -47 8 -53q-1 -2 -1 -23.5t1 -62.5h-86l-2 77v6q0 115 -78 115q-76 0 -76 -98 q0 -106 101 -225q90 -106 114 -156q43 -80 43 -193q0 -94 -38 -161q-46 -84 -140 -84h-4q-94 2 -139 73q-31 51 -31 118v16z" />
<glyph unicode="t" horiz-adv-x="321" d="M2 881v96h82v309h106v-309h89v-98h-86v-879q-106 0 -109 2v879h-82z" />
<glyph unicode="u" horiz-adv-x="471" d="M47 156v819h105v3q-2 0 -2 -814q0 -98 75 -98q74 0 74 94l-2 815h104v-803q0 -190 -180 -190q-174 0 -174 174z" />
<glyph unicode="v" horiz-adv-x="475" d="M37 975h106l95 -690l69 688h109l-129 -969l-99 -2z" />
<glyph unicode="w" horiz-adv-x="743" d="M53 977h113v-795q0 -88 72 -88q33 0 51 26.5t18 59.5l2 797h107v-793q0 -86 80 -86q66 0 65 90v787h113v-756q-1 -219 -189 -227h-8q-76 0 -110 78q-42 -80 -130 -80h-4q-178 4 -178 241z" />
<glyph unicode="x" horiz-adv-x="485" d="M31 0l139 518l-123 459h100l86 -328q18 90 74 326l107 2l-121 -461l141 -516h-104l-101 375l-92 -375h-106z" />
<glyph unicode="y" horiz-adv-x="487" d="M51 131v842h107v-832q0 -55 53 -57h7q72 0 91 82l-2 809h107v-1122q0 -86 -82 -132q-68 -38 -158 -38q-23 0 -74 6v84q63 -2 76 -2q43 0 80 20q51 27 51 78l2 184q-35 -43 -61.5 -54t-79.5 -11q-47 0 -82 40t-35 103z" />
<glyph unicode="z" horiz-adv-x="452" d="M53 0v78l223 809h-204v88h305l2 -103l-223 -784l233 -2l-2 -84z" />
<glyph unicode="{" horiz-adv-x="520" d="M-4 717q119 113 119 327q0 39 -4.5 111t-4.5 105q0 125 50 180q66 72 237 67h47l2 -26q-199 -2 -221 -185l4 -352q-16 -201 -198 -233q199 -51 198 -301q0 -43 -6 -132.5t-6 -132.5q0 -119 41 -182q53 -78 186 -90v-14l-78 -4q-154 -6 -215 88q-47 72 -47 221 q0 49 6.5 145.5t6.5 136.5q0 156 -117 271z" />
<glyph unicode="|" horiz-adv-x="352" d="M76 -164l123 2v1669h-123v-1671z" />
<glyph unicode="}" horiz-adv-x="520" d="M-4 1481q199 -2 221 -185l-4 -352q16 -201 199 -233q-201 -51 -201 -301q0 -43 7 -132.5t7 -132.5q0 -119 -43 -182q-53 -78 -184 -90v-14l78 -4q154 -6 215 88q47 72 47 221q0 49 -6 145.5t-6 136.5q-1 156 116 271q-119 113 -118 327q0 39 4 111t4 105q0 125 -51 180 q-63 72 -236 67h-49v-26z" />
<glyph unicode="~" horiz-adv-x="589" d="M66 1520q35 57 55 75q35 29 88 29q31 0 84 -24.5t84 -24.5q68 0 92 41l16 -21q-33 -55 -55 -73q-33 -27 -86 -27q-31 0 -91 23.5t-93 23.5q-53 0 -76 -41z" />
<glyph unicode="&#xa1;" horiz-adv-x="301" d="M88 817v160q117 2 129 0v-160h-129zM98 -412l17 1018h82q2 -106 30 -1018h-129z" />
<glyph unicode="&#xa2;" horiz-adv-x="487" d="M49 526v523q0 63 42 123.5t106 60.5v156h69v-164q66 -14 105 -72.5t39 -128.5v-115q-55 -8 -107 0v33q2 25 2 33q0 158 -78 158q-33 0 -51 -39q-14 -29 -14 -66v-319q-2 -252 -2 -320q0 -23 24.5 -50.5t46.5 -27.5q61 0 76 109q2 23 2 139q4 2 101 0q6 -78 2 -147 q-13 -177 -146 -197v-158h-69v160q-147 10 -148 309z" />
<glyph unicode="&#xa3;" horiz-adv-x="512" d="M43 -4v92h2q4 51 53 289q37 190 29 280h-84v99h68q-20 82 -41 164q-27 98 -27 163q0 315 201 316q90 0 143 -86q49 -78 49 -199q0 -33 -4 -67h-90q2 25 2 53q0 190 -94 190q-106 0 -107 -207q0 -59 27 -163q41 -150 45 -164h156v-99h-140q10 -123 -84 -567h310v-94h-414z " />
<glyph unicode="&#xa5;" horiz-adv-x="542" d="M27 1384l104 2l119 -505l119 503h108l-160 -655v-65h152v-62h-152v-102h152v-62h-152v-436h-129v436h-147v62h147v102h-147v62h147v65z" />
<glyph unicode="&#xa6;" horiz-adv-x="40" />
<glyph unicode="&#xa7;" horiz-adv-x="57" />
<glyph unicode="&#xa8;" horiz-adv-x="610" d="M63 1522q0 31 21.5 52t52.5 21t52.5 -21.5t21.5 -51.5q0 -31 -21.5 -52.5t-52.5 -21.5t-52.5 21.5t-21.5 52.5zM309 1522q0 31 21.5 52t52.5 21t52.5 -21.5t21.5 -51.5q0 -31 -21.5 -52.5t-52.5 -21.5t-52.5 21.5t-21.5 52.5z" />
<glyph unicode="&#xa9;" horiz-adv-x="1593" d="M49 692q0 295 204 501t497 206t497.5 -206t204.5 -501q0 -293 -204.5 -498.5t-497.5 -205.5t-497 205.5t-204 498.5zM135 692q0 -256 182.5 -436t432.5 -180t432 180t182 436q0 258 -181 438.5t-433 180.5t-433.5 -180.5t-181.5 -438.5zM385 698q0 172 106.5 287 t278.5 115q119 0 210 -69.5t112 -186.5h-93q-45 166 -229 166q-137 0 -217 -90.5t-80 -225.5q0 -123 70 -211q82 -100 223 -100q193 0 235 162h89q-27 -117 -114 -183.5t-208 -66.5q-174 0 -278.5 113.5t-104.5 289.5z" />
<glyph unicode="&#xaa;" horiz-adv-x="522" d="M31 14v82l297 1198q10 2 -279 0v95h393v-95l-290 -1192l292 -2l5 -96h-412zM49 1602l6 14l201 -68l199 68l6 -14l-201 -144z" />
<glyph unicode="&#xab;" horiz-adv-x="516" d="M2 492q2 -2 110.5 -147.5t108.5 -141.5t-112 282l112 283q-225 -270 -219 -276zM207 492q2 -2 110.5 -147.5t108.5 -141.5t-113 282l113 283q-225 -270 -219 -276z" />
<glyph unicode="&#xac;" horiz-adv-x="28" />
<glyph unicode="&#xad;" horiz-adv-x="393" d="M39 606v101h260v-103q-86 0 -260 2z" />
<glyph unicode="&#xae;" horiz-adv-x="845" d="M4 1098q0 154 108.5 261t260.5 107t257 -108.5t105 -263.5q0 -154 -105 -262.5t-257 -108.5t-260.5 110.5t-108.5 264.5zM63 1094q0 -131 92.5 -223.5t217.5 -92.5t216 92.5t91 223.5t-90 221t-217 92q-133 4 -221.5 -88t-88.5 -225zM225 918v385h168q-14 0 -12 2h16 q129 0 129 -99q1 -108 -118 -112l114 -176h-63l-115 176h-63v-176h-56zM285 1149h110q74 0 74 57q0 41 -84 41h-100v-98z" />
<glyph unicode="&#xaf;" horiz-adv-x="464" d="M63 1501v70h302v-70h-302z" />
<glyph unicode="&#xb0;" horiz-adv-x="630" d="M0 1126q0 109 76.5 184.5t185.5 75.5q106 0 183 -75.5t77 -184.5t-76.5 -184.5t-183.5 -75.5q-109 0 -185.5 76t-76.5 184zM102 1126q0 -66 47.5 -111.5t112.5 -45.5q66 0 112 46t46 111q0 66 -46 112t-112 46t-113 -46t-47 -112z" />
<glyph unicode="&#xb1;" horiz-adv-x="28" />
<glyph unicode="&#xb2;" horiz-adv-x="40" />
<glyph unicode="&#xb3;" horiz-adv-x="40" />
<glyph unicode="&#xb4;" horiz-adv-x="595" d="M123 1466l12 -26q299 84 299 90t-39 92z" />
<glyph unicode="&#xb5;" horiz-adv-x="493" d="M-6 338v106l74 86v854l110 -2v-723l170 199v-113l-170 -196v-451l244 -2v-94h-354v420z" />
<glyph unicode="&#xb6;" horiz-adv-x="690" d="M37 768q0 -76 14 -123q43 -147 211 -153q70 -2 70 -3v-716h104v1616l-149 -3q-119 -2 -158 -26q-84 -51 -92 -238q-4 -102 0 -354zM145 743l5 398q0 152 133 151q25 0 47 -6l2 -688q-29 -8 -58 -8q-129 0 -129 153zM506 -231v1620h106v-1620h-106z" />
<glyph unicode="&#xb7;" horiz-adv-x="446" d="M86 592q0 47 35 80t84 33t84 -33t35 -80t-35 -80t-84 -33t-84 33t-35 80z" />
<glyph unicode="&#xb8;" horiz-adv-x="524" d="M168 -268q31 -23 70 -23q90 0 90 98q0 37 -31 58.5t-66 21.5q-23 0 -47 -8l2 133l39 2l-2 -94q31 8 47 8q53 0 89 -41t36 -94q0 -59 -37 -97t-96 -38q-57 0 -94 37v37z" />
<glyph unicode="&#xb9;" horiz-adv-x="40" />
<glyph unicode="&#xba;" horiz-adv-x="452" d="M53 0v78l223 809h-204v88h305l2 -103l-223 -784l233 -2l-2 -84zM59 1184l7 10l170 -57l167 57l7 -10l-170 -123z" />
<glyph unicode="&#xbb;" horiz-adv-x="516" d="M2 203q0 4 113 282l-113 283q223 -270 219 -276q-2 -2 -110.5 -147.5t-108.5 -141.5zM207 203q0 4 112 282l-112 283q223 -270 219 -276q-2 -2 -110.5 -147.5t-108.5 -141.5z" />
<glyph unicode="&#xbc;" horiz-adv-x="40" />
<glyph unicode="&#xbd;" horiz-adv-x="40" />
<glyph unicode="&#xbe;" horiz-adv-x="40" />
<glyph unicode="&#xbf;" horiz-adv-x="444" d="M39 -166q0 92 41 205l70 192q51 178 47 369h92v-186q2 -6 -2 -23.5t-6 -23.5q-6 -88 -70 -277q-57 -174 -57 -264q0 -150 92 -150q61 0 82 95q8 61 16 120h96q6 -12 6 -30q0 -106 -43 -183q-57 -100 -172 -100q-109 0 -157 94q-35 68 -35 162zM186 815v162h119v-162 q-59 -8 -119 0z" />
<glyph unicode="&#xc0;" horiz-adv-x="555" d="M0 637v100h49v443q6 215 213 215q94 0 149.5 -63.5t57.5 -155.5q4 -363 -2 -1174l-115 2v633h-194v-635h-111v637l-39 -2h-8zM98 1530q0 6 39 92l273 -156l-13 -26q-299 84 -299 90zM160 737h200v432q0 131 -100 131q-43 0 -70.5 -36.5t-27.5 -79.5z" />
<glyph unicode="&#xc1;" horiz-adv-x="555" d="M0 637v100h49v443q6 215 213 215q94 0 149.5 -63.5t57.5 -155.5q4 -363 -2 -1174l-115 2v633h-194v-635h-111v637l-39 -2h-8zM102 1466l13 -26q299 84 299 90t-39 92zM160 737h200v432q0 131 -100 131q-43 0 -70.5 -36.5t-27.5 -79.5z" />
<glyph unicode="&#xc2;" horiz-adv-x="555" d="M0 637v100h49v443q6 215 213 215q94 0 149.5 -63.5t57.5 -155.5q4 -363 -2 -1174l-115 2v633h-194v-635h-111v637l-39 -2h-8zM49 1470l201 146l211 -146l-6 -12l-199 68l-201 -68zM160 737h200v432q0 131 -100 131q-43 0 -70.5 -36.5t-27.5 -79.5z" />
<glyph unicode="&#xc3;" horiz-adv-x="555" d="M0 637v100h49v443q6 215 213 215q94 0 149.5 -63.5t57.5 -155.5q4 -363 -2 -1174l-115 2v633h-194v-635h-111v637l-39 -2h-8zM45 1520q35 57 55 75q35 29 88 29q31 0 84.5 -24.5t83.5 -24.5q68 0 93 41l16 -21q-33 -55 -55 -73q-33 -27 -86 -27q-31 0 -91.5 23.5 t-93.5 23.5q-53 0 -76 -41zM160 737h200v432q0 131 -100 131q-43 0 -70.5 -36.5t-27.5 -79.5z" />
<glyph unicode="&#xc4;" horiz-adv-x="555" d="M0 637v100h49v443q6 215 213 215q94 0 149.5 -63.5t57.5 -155.5q4 -363 -2 -1174l-115 2v633h-194v-635h-111v637l-39 -2h-8zM63 1522q0 31 21.5 52t52.5 21t52.5 -21.5t21.5 -51.5q0 -31 -21.5 -52.5t-52.5 -21.5t-52.5 21.5t-21.5 52.5zM160 737h200v432 q0 131 -100 131q-43 0 -70.5 -36.5t-27.5 -79.5zM309 1522q0 31 21.5 52t52.5 21t52.5 -21.5t21.5 -51.5q0 -31 -21.5 -52.5t-52.5 -21.5t-52.5 21.5t-21.5 52.5z" />
<glyph unicode="&#xc5;" horiz-adv-x="555" d="M0 637v100h49v443q6 215 213 215q94 0 149.5 -63.5t57.5 -155.5q4 -363 -2 -1174l-115 2v633h-194v-635h-111v637l-39 -2h-8zM121 1567q0 49 40 79.5t93 30.5q51 0 92 -30.5t41 -79.5t-41 -80t-92 -31q-53 0 -93 31t-40 80zM160 737h200v432q0 131 -100 131 q-43 0 -70.5 -36.5t-27.5 -79.5zM180 1567q0 -49 74 -49q72 0 72 49t-72 49q-74 0 -74 -49z" />
<glyph unicode="&#xc6;" horiz-adv-x="774" d="M0 637v100h49v443q6 215 213 215q94 0 154 -68q63 68 184 68q72 0 100 -11v-100q-59 16 -94 16q-137 0 -137 -202l2 -324h197v-106h-193v-455q0 -125 127 -125q68 0 100 16v-100q-41 -12 -104 -12q-76 0 -131 26v-16l-115 2v633h-194v-635h-111v637l-39 -2h-8zM160 737 h200v432q0 131 -100 131q-43 0 -70.5 -36.5t-27.5 -79.5z" />
<glyph unicode="&#xc7;" horiz-adv-x="524" d="M41 332q0 -20 0 782q0 274 205 279q90 0 144 -65.5t54 -190.5v-217h-102v210q0 166 -98 166q-88 0 -90 -170v-847q-6 -27 -7 -58q0 -135 107 -143q25 -2 47 22q41 43 41 146v241h109v-84q-2 -66 -2 -84q0 -174 -37 -245q-45 -92 -170 -90h-17l-2 -64q31 8 47 8 q53 0 89 -41t36 -94q0 -59 -37 -97t-96 -38q-57 0 -94 37v37q31 -23 70 -23q90 0 90 98q0 37 -31 58.5t-66 21.5q-23 0 -47 -8l2 111q-94 20 -125 110q-25 72 -20 232z" />
<glyph unicode="&#xc8;" horiz-adv-x="483" d="M20 668l3 104l47 -2v414q0 102 71 159q66 51 172 52q72 0 101 -11v-100q-59 16 -95 16q-137 0 -137 -202l2 -324h197v-106h-193v-455q0 -125 127 -125q68 0 101 16v-100q-41 -12 -105 -12q-236 0 -235 217v459h-56zM98 1530q0 6 39 92l273 -156l-13 -26q-299 84 -299 90z " />
<glyph unicode="&#xc9;" horiz-adv-x="483" d="M20 668l3 104l47 -2v414q0 102 71 159q66 51 172 52q72 0 101 -11v-100q-59 16 -95 16q-137 0 -137 -202l2 -324h197v-106h-193v-455q0 -125 127 -125q68 0 101 16v-100q-41 -12 -105 -12q-236 0 -235 217v459h-56zM123 1466l12 -26q299 84 299 90t-51 88z" />
<glyph unicode="&#xca;" horiz-adv-x="483" d="M20 668l3 104l47 -2v414q0 102 71 159q66 51 172 52q72 0 101 -11v-100q-59 16 -95 16q-137 0 -137 -202l2 -324h197v-106h-193v-455q0 -125 127 -125q68 0 101 16v-100q-41 -12 -105 -12q-236 0 -235 217v459h-56zM49 1470l201 146l211 -146l-6 -12l-199 68l-201 -68z " />
<glyph unicode="&#xcb;" horiz-adv-x="483" d="M20 668l3 104l47 -2v414q0 102 71 159q66 51 172 52q72 0 101 -11v-100q-59 16 -95 16q-137 0 -137 -202l2 -324h197v-106h-193v-455q0 -125 127 -125q68 0 101 16v-100q-41 -12 -105 -12q-236 0 -235 217v459h-56zM63 1522q0 31 21.5 52t52.5 21t52.5 -21.5t21.5 -51.5 q0 -31 -21.5 -52.5t-52.5 -21.5t-52.5 21.5t-21.5 52.5zM309 1522q0 31 21.5 52t52.5 21t52.5 -21.5t21.5 -51.5q0 -31 -21.5 -52.5t-52.5 -21.5t-52.5 21.5t-21.5 52.5z" />
<glyph unicode="&#xcc;" horiz-adv-x="258" d="M-45 1530q0 6 39 92l272 -156l-12 -26q-299 84 -299 90zM53 2v1387h119v-1387h-119z" />
<glyph unicode="&#xcd;" horiz-adv-x="258" d="M-61 1466l12 -26q299 84 299 90t-39 92zM53 2v1387h119v-1387h-119z" />
<glyph unicode="&#xce;" horiz-adv-x="258" d="M-94 1470l200 146l211 -146l-6 -12l-198 68l-201 -68zM53 2v1387h119v-1387h-119z" />
<glyph unicode="&#xcf;" horiz-adv-x="258" d="M-80 1522q0 31 21.5 52t52.5 21t52.5 -21.5t21.5 -51.5q0 -31 -21.5 -52.5t-52.5 -21.5t-52.5 21.5t-21.5 52.5zM53 2v1387h119v-1387h-119zM166 1522q0 31 21.5 52t52.5 21t52 -21.5t21 -51.5q0 -31 -21.5 -52.5t-51.5 -21.5q-31 0 -52.5 21.5t-21.5 52.5z" />
<glyph unicode="&#xd0;" horiz-adv-x="40" />
<glyph unicode="&#xd1;" d="M43 0v1391h109q2 -44 -2 -60q31 47 71 62q25 10 82 10q90 0 139 -84q43 -72 43 -178v-1143h-114v1165q0 135 -99 135q-45 0 -79.5 -40.5t-34.5 -108.5q0 -14 -2 -39v-41v-1069h-113zM45 1520q35 57 55 75q35 29 88 29q31 0 84.5 -24.5t83.5 -24.5q68 0 93 41l16 -21 q-33 -55 -55 -73q-33 -27 -86 -27q-31 0 -91.5 23.5t-93.5 23.5q-53 0 -76 -41z" />
<glyph unicode="&#xd2;" d="M45 1104q-2 297 215 297t217 -291q-4 -825 0 -825q2 -158 -50 -226.5t-167 -68.5q-223 0 -213 295zM98 1530q0 6 39 92l273 -156l-13 -26q-299 84 -299 90zM154 279q-2 -188 116 -189q106 0 101 189l-2 835q4 188 -115 189q-29 2 -55 -23q-47 -41 -45 -141q2 -70 2 -443 q2 -414 -2 -417z" />
<glyph unicode="&#xd3;" d="M45 1104q-2 297 215 297t217 -291q-4 -825 0 -825q2 -158 -50 -226.5t-167 -68.5q-223 0 -213 295zM102 1466l13 -26q299 84 299 90t-39 92zM154 279q-2 -188 116 -189q106 0 101 189l-2 835q4 188 -115 189q-29 2 -55 -23q-47 -41 -45 -141q2 -70 2 -443q2 -414 -2 -417 z" />
<glyph unicode="&#xd4;" d="M45 1104q-2 297 215 297t217 -291q-4 -825 0 -825q2 -158 -50 -226.5t-167 -68.5q-223 0 -213 295zM49 1470l201 146l211 -146l-6 -12l-199 68l-201 -68zM154 279q-2 -188 116 -189q106 0 101 189l-2 835q4 188 -115 189q-29 2 -55 -23q-47 -41 -45 -141q2 -70 2 -443 q2 -414 -2 -417z" />
<glyph unicode="&#xd5;" d="M45 1104q-2 297 215 297t217 -291q-4 -825 0 -825q2 -158 -50 -226.5t-167 -68.5q-223 0 -213 295zM45 1520q35 57 55 75q35 29 88 29q31 0 84.5 -24.5t83.5 -24.5q68 0 93 41l16 -21q-33 -55 -55 -73q-33 -27 -86 -27q-31 0 -91.5 23.5t-93.5 23.5q-53 0 -76 -41z M154 279q-2 -188 116 -189q106 0 101 189l-2 835q4 188 -115 189q-29 2 -55 -23q-47 -41 -45 -141q2 -70 2 -443q2 -414 -2 -417z" />
<glyph unicode="&#xd6;" d="M45 1104q-2 297 215 297t217 -291q-4 -825 0 -825q2 -158 -50 -226.5t-167 -68.5q-223 0 -213 295zM63 1522q0 31 21.5 52t52.5 21t52.5 -21.5t21.5 -51.5q0 -31 -21.5 -52.5t-52.5 -21.5t-52.5 21.5t-21.5 52.5zM154 279q-2 -188 116 -189q106 0 101 189l-2 835 q4 188 -115 189q-29 2 -55 -23q-47 -41 -45 -141q2 -70 2 -443q2 -414 -2 -417zM309 1522q0 31 21.5 52t52.5 21t52.5 -21.5t21.5 -51.5q0 -31 -21.5 -52.5t-52.5 -21.5t-52.5 21.5t-21.5 52.5z" />
<glyph unicode="&#xd7;" horiz-adv-x="40" />
<glyph unicode="&#xd8;" d="M12 -20l49 165q-18 61 -14 140l2 823q-2 293 211 293q86 0 141 -51l19 65l86 2l-47 -168q18 -59 18 -139q-4 -825 0 -825q2 -158 -50 -226.5t-167 -68.5q-92 0 -147 57l-19 -67h-82zM154 1139q2 -160 2 -654l204 721q-25 96 -106 97q-29 2 -55 -23q-47 -41 -45 -141z M160 207q20 -117 110 -117q45 0 66 25q35 43 35 164l-2 655z" />
<glyph unicode="&#xd9;" horiz-adv-x="589" d="M47 305q0 -164 43 -233q51 -82 186 -82q231 0 222 317q0 4 2 543q0 538 0 536h-115v-1028q0 -129 -8 -163q-20 -90 -109 -91q-82 -2 -100 113q-6 27 -6 135v1034h-113zM119 1530q0 6 39 92l272 -156l-12 -26q-299 84 -299 90z" />
<glyph unicode="&#xda;" horiz-adv-x="589" d="M49 301q0 -152 41 -223q53 -88 186 -88q221 0 222 317q0 4 2 543q0 538 0 536h-117l2 -1007q0 -145 -14 -197q-23 -84 -99 -86q-111 0 -110 277v1013h-113v-1085zM123 1466l12 -26q299 84 299 90t-39 92z" />
<glyph unicode="&#xdb;" horiz-adv-x="589" d="M49 301q0 -152 41 -223q53 -88 186 -88q221 0 222 317q0 4 2 543q0 538 0 536h-117l2 -1007q0 -145 -14 -197q-23 -84 -99 -86q-111 0 -110 277v1013h-113v-1085zM66 1470l200 146l211 -146l-6 -12l-199 68l-200 -68z" />
<glyph unicode="&#xdc;" horiz-adv-x="589" d="M49 301q0 -152 41 -223q53 -88 186 -88q221 0 222 317q0 4 2 543q0 538 0 536h-115v-1007q0 -145 -14 -197q-23 -84 -99 -86q-111 0 -110 277v1013h-113v-1085zM84 1522q0 31 21.5 52t52.5 21t52 -21.5t21 -51.5q0 -31 -21.5 -52.5t-51.5 -21.5q-31 0 -52.5 21.5 t-21.5 52.5zM330 1522q0 31 21.5 52t51.5 21q31 0 52.5 -21.5t21.5 -51.5q0 -31 -21.5 -52.5t-52.5 -21.5t-52 21.5t-21 52.5z" />
<glyph unicode="&#xdd;" horiz-adv-x="40" />
<glyph unicode="&#xde;" horiz-adv-x="40" />
<glyph unicode="&#xdf;" horiz-adv-x="645" d="M0 907q29 -4 72 0v-909h116v1208q10 104 76 107h49q37 0 73 -41t45 -87t9 -136q0 -246 -170 -258v-95q180 10 181 -311q0 -160 -5 -176q-8 -55 -12 -64q-10 -29 -49 -43q-10 -6 -84 -6q6 -94 0 -94l2 -10q76 0 98 6q162 35 174 276q0 27 -2 70q-2 51 -2 59 q0 272 -139 342q127 51 127 322q0 315 -221 336q0 -2 -117 -2q-154 0 -153 -252v-164h-68v-78z" />
<glyph unicode="&#xe0;" horiz-adv-x="481" d="M37 252q0 276 266 389q-4 74 -6 147q-14 109 -64 109q-53 0 -65 -78q-2 -12 -2 -119v-22q-55 -6 -98 0q4 20 2 51q-4 43 -4 51q0 213 172 213q115 0 151 -110q20 -61 21 -205v-561q0 8 24 -113h-106q-8 14 -27 41q-8 -2 -45 -31q-25 -20 -61 -20q-86 0 -127 92 q-31 68 -31 166zM49 1161q0 6 39 92l272 -155l-12 -27q-299 84 -299 90zM150 244q0 -154 73 -154q29 0 53.5 20.5t24.5 47.5v366q-90 -57 -120.5 -114.5t-30.5 -165.5z" />
<glyph unicode="&#xe1;" horiz-adv-x="481" d="M37 252q0 276 266 389q-4 74 -6 147q-14 109 -64 109q-53 0 -65 -78q-2 -12 -2 -119v-22q-55 -6 -98 0q4 20 2 51q-4 43 -4 51q0 213 172 213q115 0 151 -110q20 -61 21 -205v-561q0 8 24 -113h-106q-8 14 -27 41q-8 -2 -45 -31q-25 -20 -61 -20q-86 0 -127 92 q-31 68 -31 166zM82 1098l12 -27q299 84 299 90t-39 92zM150 244q0 -154 73 -154q29 0 53.5 20.5t24.5 47.5v366q-90 -57 -120.5 -114.5t-30.5 -165.5z" />
<glyph unicode="&#xe2;" horiz-adv-x="481" d="M37 252q0 276 266 389q-4 74 -6 147q-14 109 -64 109q-53 0 -65 -78q-2 -12 -2 -119v-22q-55 -6 -98 0q4 20 2 51q-4 43 -4 51q0 213 172 213q115 0 151 -110q20 -61 21 -205v-561q0 8 24 -113h-106q-8 14 -27 41q-8 -2 -45 -31q-25 -20 -61 -20q-86 0 -127 92 q-31 68 -31 166zM39 1071l170 123l180 -123l-6 -10l-168 57l-170 -57zM150 244q0 -154 73 -154q29 0 53.5 20.5t24.5 47.5v366q-90 -57 -120.5 -114.5t-30.5 -165.5z" />
<glyph unicode="&#xe3;" horiz-adv-x="481" d="M37 252q0 276 266 389q-4 74 -6 147q-14 109 -64 109q-53 0 -65 -78q-2 -12 -2 -119v-22q-55 -6 -98 0q4 20 2 51q-4 43 -4 51q0 213 172 213q115 0 151 -110q20 -61 21 -205v-561q0 8 24 -113h-106q-8 14 -27 41q-8 -2 -45 -31q-25 -20 -61 -20q-86 0 -127 92 q-31 68 -31 166zM57 1116q29 47 47 64q29 25 74 24q27 0 72 -20.5t72 -20.5q57 0 77 35l15 -18q-53 -86 -121 -86q-27 0 -78 20.5t-80 20.5q-43 0 -63 -35zM150 244q0 -154 73 -154q29 0 53.5 20.5t24.5 47.5v366q-90 -57 -120.5 -114.5t-30.5 -165.5z" />
<glyph unicode="&#xe4;" horiz-adv-x="481" d="M37 252q0 276 266 389q-4 74 -6 147q-14 109 -64 109q-53 0 -65 -78q-2 -12 -2 -119v-22q-55 -6 -98 0q4 20 2 51q-4 43 -4 51q0 213 172 213q115 0 151 -110q20 -61 21 -205v-561q0 8 24 -113h-106q-8 14 -27 41q-8 -2 -45 -31q-25 -20 -61 -20q-86 0 -127 92 q-31 68 -31 166zM72 1133q0 63 63 63q61 0 62 -63q0 -63 -62 -64q-63 1 -63 64zM150 244q0 -154 73 -154q29 0 53.5 20.5t24.5 47.5v366q-90 -57 -120.5 -114.5t-30.5 -165.5zM281 1133q0 63 63 63q61 0 62 -63q0 -63 -62 -64q-63 1 -63 64z" />
<glyph unicode="&#xe5;" horiz-adv-x="481" d="M37 252q0 276 266 389q-4 74 -6 147q-14 109 -64 109q-53 0 -65 -78q-2 -12 -2 -119v-22q-55 -6 -98 0q4 20 2 51q-4 43 -4 51q0 213 172 213q115 0 151 -110q20 -61 21 -205v-561q0 8 24 -113h-106q-8 14 -27 41q-8 -2 -45 -31q-25 -20 -61 -20q-86 0 -127 92 q-31 68 -31 166zM119 1178q0 41 34.5 67.5t79.5 26.5q43 0 78 -26.5t35 -67.5t-35 -68t-78 -27q-45 0 -79.5 27t-34.5 68zM150 244q0 -154 73 -154q29 0 53.5 20.5t24.5 47.5v366q-90 -57 -120.5 -114.5t-30.5 -165.5zM172 1178q0 -43 61 -43t62 43q-1 43 -62 43t-61 -43z " />
<glyph unicode="&#xe6;" horiz-adv-x="737" d="M37 252q0 274 262 387v129q0 129 -66 129q-53 0 -65 -78q-2 -12 -2 -119v-22q-55 -6 -98 0q4 20 2 51q-4 43 -4 51q0 213 172 213q74 0 114 -45q47 47 123 47q84 0 133 -57t51 -154q5 -102 5 -292h-254v-304q12 -92 71 -92q80 0 80 125v129h101v-135q0 -84 -50 -145 q-55 -68 -137 -68q-61 0 -78 6q-23 8 -51 53q-92 -68 -151 -67q-86 0 -127 92q-31 68 -31 166zM150 244q0 -154 73 -154q76 0 76 49v29v47v307q-88 -57 -118.5 -114.5t-30.5 -163.5zM403 815q6 -45 7 -137v-92l143 -2q2 137 2 217q0 106 -80 106q-66 0 -72 -92z" />
<glyph unicode="&#xe7;" horiz-adv-x="481" d="M49 301v522q0 66 57.5 123.5t122.5 57.5q80 0 133 -64q47 -61 48 -141v-115q-55 -8 -107 0v33q2 25 2 33q0 158 -78 157q-33 0 -51 -39q-14 -29 -14 -65l4 -639q0 -23 21.5 -50.5t43.5 -27.5q61 0 76 109q2 23 2 139q4 2 101 0q6 -78 2 -148q-14 -203 -176 -198h-11 l-2 -68q31 8 47 8q53 0 89 -41t36 -94q0 -59 -37 -97t-96 -38q-57 0 -94 37v37q31 -23 70 -23q90 0 90 98q0 37 -31 58.5t-66 21.5q-23 0 -47 -8l2 115q-137 41 -137 307z" />
<glyph unicode="&#xe8;" horiz-adv-x="481" d="M49 215v565q0 215 176 215q84 0 134.5 -57t54.5 -154q0 7 0 -292h-256v-277q0 -119 73 -119q80 0 80 125v129h101v-135q0 -86 -45 -147q-51 -70 -131 -70q-84 0 -135.5 65.5t-51.5 151.5zM53 1161q0 6 39 92l273 -155l-13 -27q-299 84 -299 90zM154 586l149 -2 q2 137 2 217q0 106 -80 106q-72 0 -71 -112v-209z" />
<glyph unicode="&#xe9;" horiz-adv-x="481" d="M49 215v565q0 215 176 215q84 0 134.5 -57t54.5 -154q0 7 0 -292h-256v-277q0 -119 73 -119q80 0 80 125v129h101v-135q0 -86 -45 -147q-51 -70 -131 -70q-84 0 -135.5 65.5t-51.5 151.5zM82 1098l12 -27q299 84 299 90t-39 92zM154 586l149 -2q2 137 2 217 q0 106 -80 106q-72 0 -71 -112v-209z" />
<glyph unicode="&#xea;" horiz-adv-x="481" d="M39 1071l170 123l180 -123l-6 -10l-168 57l-170 -57zM49 215v565q0 215 176 215q84 0 134.5 -57t54.5 -154q0 7 0 -292h-256v-277q0 -119 73 -119q80 0 80 125v129h101v-135q0 -86 -45 -147q-51 -70 -131 -70q-84 0 -135.5 65.5t-51.5 151.5zM154 586l149 -2q2 137 2 217 q0 106 -80 106q-72 0 -71 -112v-209z" />
<glyph unicode="&#xeb;" horiz-adv-x="481" d="M49 215v565q0 215 176 215q84 0 134.5 -57t54.5 -154q0 7 0 -292h-256v-277q0 -119 73 -119q80 0 80 125v129h101v-135q0 -86 -45 -147q-51 -70 -131 -70q-84 0 -135.5 65.5t-51.5 151.5zM72 1133q0 63 63 63q61 0 62 -63q0 -63 -62 -64q-63 1 -63 64zM154 586l149 -2 q2 137 2 217q0 106 -80 106q-72 0 -71 -112v-209zM281 1133q0 63 63 63q61 0 62 -63q0 -63 -62 -64q-63 1 -63 64z" />
<glyph unicode="&#xec;" horiz-adv-x="227" d="M-47 1161q0 6 39 92l272 -155l-14 -27q-297 84 -297 90zM51 0v981h107v-981h-107z" />
<glyph unicode="&#xed;" horiz-adv-x="227" d="M-41 1098l12 -27q299 84 299 90t-39 92zM51 0v981h107v-981h-107z" />
<glyph unicode="&#xee;" horiz-adv-x="227" d="M-63 1071l169 123l181 -123l-6 -10l-168 57l-170 -57zM51 0v981h107v-981h-107z" />
<glyph unicode="&#xef;" horiz-adv-x="227" d="M-51 1133q0 63 63 63q61 0 62 -63q0 -63 -62 -64q-63 1 -63 64zM51 0v981h107v-981h-107zM158 1133q0 63 63 63q61 0 62 -63q0 -63 -62 -64q-63 1 -63 64z" />
<glyph unicode="&#xf0;" horiz-adv-x="40" />
<glyph unicode="&#xf1;" horiz-adv-x="493" d="M47 0v979h105q2 -43 2 -66q-2 0 48 39t99 39q57 -2 94 -59q29 -45 29 -92v-840h-115v813q0 66 -45 61q-55 -4 -106 -67l-2 -807h-109zM57 1116q29 47 47 64q29 25 74 24q27 0 72 -20.5t72 -20.5q57 0 77 35l15 -18q-53 -86 -121 -86q-27 0 -78 20.5t-80 20.5 q-43 0 -63 -35z" />
<glyph unicode="&#xf2;" horiz-adv-x="487" d="M45 1161q0 6 39 92l272 -155l-12 -27q-299 84 -299 90zM47 207v547q0 236 186 235q96 0 148 -76q39 -61 39 -149l-2 -565q-2 -215 -185 -215q-96 0 -147 79q-41 66 -39 144zM154 186q6 -45 10 -55q18 -53 74 -53q72 -2 71 108l-2 623q0 84 -78 84q-76 0 -75 -88v-619z " />
<glyph unicode="&#xf3;" horiz-adv-x="487" d="M47 207v547q0 236 186 235q96 0 148 -76q39 -61 39 -149l-2 -565q-2 -215 -185 -215q-96 0 -147 79q-41 66 -39 144zM82 1098l12 -27q299 84 299 90t-39 92zM154 186q6 -45 10 -55q18 -53 74 -53q72 -2 71 108l-2 623q0 84 -78 84q-76 0 -75 -88v-619z" />
<glyph unicode="&#xf4;" horiz-adv-x="487" d="M47 207v547q0 236 186 235q96 0 148 -76q39 -61 39 -149l-2 -565q-2 -215 -185 -215q-96 0 -147 79q-41 66 -39 144zM59 1071l170 123l181 -123l-7 -10l-167 57l-170 -57zM154 186q6 -45 10 -55q18 -53 74 -53q72 -2 71 108l-2 623q0 84 -78 84q-76 0 -75 -88v-619z" />
<glyph unicode="&#xf5;" horiz-adv-x="487" d="M47 207v547q0 236 186 235q96 0 148 -76q39 -61 39 -149l-2 -565q-2 -215 -185 -215q-96 0 -147 79q-41 66 -39 144zM57 1116q29 47 47 64q29 25 74 24q27 0 72 -20.5t72 -20.5q57 0 77 35l15 -18q-53 -86 -121 -86q-27 0 -78 20.5t-80 20.5q-43 0 -63 -35zM154 186 q6 -45 10 -55q18 -53 74 -53q72 -2 71 108l-2 623q0 84 -78 84q-76 0 -75 -88v-619z" />
<glyph unicode="&#xf6;" horiz-adv-x="487" d="M47 207v547q0 236 186 235q96 0 148 -76q39 -61 39 -149l-2 -565q-2 -215 -185 -215q-96 0 -147 79q-41 66 -39 144zM72 1133q0 63 63 63q61 0 62 -63q0 -63 -62 -64q-63 1 -63 64zM154 186q6 -45 10 -55q18 -53 74 -53q72 -2 71 108l-2 623q0 84 -78 84q-76 0 -75 -88 v-619zM281 1133q0 63 63 63q61 0 62 -63q0 -63 -62 -64q-63 1 -63 64z" />
<glyph unicode="&#xf7;" horiz-adv-x="51" />
<glyph unicode="&#xf8;" horiz-adv-x="487" d="M35 -12l31 114q-18 47 -19 105v547q0 236 186 235q45 0 80 -18l13 43h71l-26 -90q49 -61 49 -160l-2 -565q-2 -215 -185 -215q-74 0 -122 49l-17 -53zM154 184q2 -35 12 -59q20 -47 72 -47q72 -2 71 108l-2 521zM154 616q2 -190 2 -204l129 458q-20 23 -56 23 q-76 0 -75 -88v-189z" />
<glyph unicode="&#xf9;" horiz-adv-x="471" d="M47 156v819h105q-2 51 -2 -811q0 -98 75 -98q74 0 74 94l-2 815h104v-803q0 -190 -180 -190q-174 0 -174 174zM66 1161q-1 6 38 92l275 -155l-14 -27q-299 84 -299 90z" />
<glyph unicode="&#xfa;" horiz-adv-x="471" d="M47 156v819h105q-2 51 -2 -811q0 -98 75 -98q74 0 74 94l-2 815h104v-803q0 -190 -180 -190q-174 0 -174 174zM82 1098l12 -27q299 84 299 90t-39 92z" />
<glyph unicode="&#xfb;" horiz-adv-x="471" d="M39 1071l170 123l180 -123l-6 -10l-168 57l-170 -57zM47 156v819h105q-2 51 -2 -811q0 -98 75 -98q74 0 74 94l-2 815h104v-803q0 -190 -180 -190q-174 0 -174 174z" />
<glyph unicode="&#xfc;" horiz-adv-x="471" d="M47 156v819h105q-2 51 -2 -811q0 -98 75 -98q74 0 74 94l-2 815h104v-803q0 -190 -180 -190q-174 0 -174 174zM63 1151q0 63 64 63q61 0 61 -63t-61 -64q-64 1 -64 64zM272 1151q0 63 64 63q61 0 61 -63t-61 -64q-64 1 -64 64z" />
<glyph unicode="&#xfd;" horiz-adv-x="40" />
<glyph unicode="&#xfe;" horiz-adv-x="40" />
<glyph unicode="&#xff;" horiz-adv-x="487" d="M51 131v842h107v-832q0 -55 53 -57q78 -4 98 82l-2 809h107v-1122q0 -86 -82 -132q-68 -38 -158 -38q-23 0 -74 6v84q63 -2 76 -2q43 0 80 20q51 27 51 78l2 184q-35 -43 -61.5 -54t-79.5 -11q-47 0 -82 40t-35 103zM61 1133q0 63 64 63q61 0 61 -63t-61 -64 q-64 1 -64 64zM270 1133q0 63 64 63q61 0 61 -63t-61 -64q-64 1 -64 64z" />
<glyph unicode="&#x152;" horiz-adv-x="780" d="M47 285v819q-2 297 213 297q104 0 162 -76q63 70 186 70q72 0 101 -11v-100q-59 16 -95 16q-137 0 -137 -202l2 -324h197v-106h-193v-455q0 -125 127 -125q68 0 101 16v-100q-41 -12 -105 -12q-121 0 -182 63q-51 -66 -164 -65q-223 0 -213 295zM154 279 q-2 -188 116 -189q101 0 101 141v99l-2 784q4 188 -115 189q-29 2 -55 -23q-47 -41 -45 -141q2 -70 2 -443q2 -414 -2 -417z" />
<glyph unicode="&#x153;" horiz-adv-x="743" d="M47 217v537q0 236 186 235q76 0 123 -47q45 53 127 53q84 0 134.5 -57t54.5 -154q0 7 0 -292h-254v-297v-13q14 -90 71 -90q80 0 80 125v129h101v-135q0 -86 -45 -148q-51 -70 -131 -69q-70 0 -119 47q-37 -47 -142 -47q-96 0 -147 80q-39 63 -39 143zM154 197 q6 -45 10 -56q18 -53 74 -53q69 -2 71 102q-2 16 -2 35v555v12.5v12.5v4q0 84 -78 84q-76 0 -75 -88v-608zM414 825q6 -31 6 -61l-2 -178l143 -2q2 137 2 217q0 106 -80 106q-61 0 -69 -82z" />
<glyph unicode="&#x178;" horiz-adv-x="610" d="M47 776v613h115v-531q-2 -31 -2 -65q0 -219 106 -220q82 0 105 86q14 47 14 197v533h111l-2 -1129q0 -145 -80 -217q-27 -25 -95 -41q-59 -14 -98 -14q-102 4 -168 28q-2 10 25 99q82 -31 147 -31q170 0 170 176l-2 150q0 90 2 102q-47 -35 -80 -39q-10 -2 -59 0 q-113 8 -161 78t-48 225zM66 1522q0 31 21.5 52t51.5 21q31 0 52.5 -21.5t21.5 -51.5q0 -31 -21.5 -52.5t-52.5 -21.5t-52 21.5t-21 52.5zM311 1522q0 31 21.5 52t52.5 21t52.5 -21.5t21.5 -51.5q0 -31 -21.5 -52.5t-52.5 -21.5t-52.5 21.5t-21.5 52.5z" />
<glyph unicode="&#x2c6;" horiz-adv-x="530" d="M29 1470l200 146l211 -146l-6 -12l-198 68l-201 -68z" />
<glyph unicode="&#x2dc;" horiz-adv-x="589" d="M66 1520q35 57 55 75q35 29 88 29q31 0 84 -24.5t84 -24.5q68 0 92 41l16 -21q-33 -55 -55 -73q-33 -27 -86 -27q-31 0 -91 23.5t-93 23.5q-53 0 -76 -41z" />
<glyph unicode="&#x2000;" horiz-adv-x="838" />
<glyph unicode="&#x2001;" horiz-adv-x="1677" />
<glyph unicode="&#x2002;" horiz-adv-x="838" />
<glyph unicode="&#x2003;" horiz-adv-x="1677" />
<glyph unicode="&#x2004;" />
<glyph unicode="&#x2005;" horiz-adv-x="419" />
<glyph unicode="&#x2006;" horiz-adv-x="279" />
<glyph unicode="&#x2007;" horiz-adv-x="279" />
<glyph unicode="&#x2008;" horiz-adv-x="209" />
<glyph unicode="&#x2009;" horiz-adv-x="335" />
<glyph unicode="&#x200a;" horiz-adv-x="93" />
<glyph unicode="&#x2010;" horiz-adv-x="393" d="M39 606v101h260v-103q-86 0 -260 2z" />
<glyph unicode="&#x2011;" horiz-adv-x="393" d="M39 606v101h260v-103q-86 0 -260 2z" />
<glyph unicode="&#x2012;" horiz-adv-x="393" d="M39 606v101h260v-103q-86 0 -260 2z" />
<glyph unicode="&#x2013;" horiz-adv-x="690" d="M6 516v105h324.5t277.5 0q6 -91 0 -105h-602z" />
<glyph unicode="&#x2014;" horiz-adv-x="1361" d="M6 516v105h1278q6 -90 0 -105h-1278z" />
<glyph unicode="&#x2018;" horiz-adv-x="276" d="M57 985v154l66 250h51l-35 -250l54 -2v-152h-136z" />
<glyph unicode="&#x2019;" horiz-adv-x="276" d="M57 1237v152h136v-154l-66 -250h-51l35 250z" />
<glyph unicode="&#x201a;" horiz-adv-x="276" d="M57 8v152h136v-154l-66 -250h-51l35 250z" />
<glyph unicode="&#x201c;" horiz-adv-x="501" d="M57 985v154l66 250h51l-35 -250l54 -2v-152h-136zM283 985v154l65 250h51l-34 -250l53 -2v-152h-135z" />
<glyph unicode="&#x201d;" horiz-adv-x="501" d="M57 1237v152h136v-154l-66 -250h-51l35 250zM283 1237v152h135v-154l-66 -250h-51l35 250z" />
<glyph unicode="&#x201e;" horiz-adv-x="499" d="M57 8v152h136v-154l-66 -250h-51l35 250zM283 8v152h135v-154l-66 -250h-51l35 250z" />
<glyph unicode="&#x2022;" horiz-adv-x="647" d="M57 721q0 106 75 180t179 74t179 -74t75 -180q0 -104 -74.5 -179t-179.5 -75q-104 0 -179 75t-75 179z" />
<glyph unicode="&#x2026;" horiz-adv-x="1214" d="M162 8v152h129v-152h-129zM571 8v152h129v-152h-129zM981 8v152h129v-152h-129z" />
<glyph unicode="&#x202f;" horiz-adv-x="335" />
<glyph unicode="&#x2039;" horiz-adv-x="317" d="M2 492q2 -2 110.5 -147.5t108.5 -141.5t-112 282l112 283q-225 -270 -219 -276z" />
<glyph unicode="&#x203a;" horiz-adv-x="317" d="M2 203q0 4 113 282l-113 283q223 -270 219 -276q-2 -2 -110.5 -147.5t-108.5 -141.5z" />
<glyph unicode="&#x205f;" horiz-adv-x="419" />
<glyph unicode="&#x2122;" horiz-adv-x="1007" d="M4 1313v59h322v-59h-131v-342h-58v342h-133zM422 971v401h94l115 -289l117 289h94v-401h-56v342h-4l-135 -342h-35l-133 342v-342h-57z" />
<glyph unicode="&#x25fc;" horiz-adv-x="972" d="M0 0v973h973v-973h-973z" />
</font>
</defs>
</svg>
